# This file uses meters as units for non-parametric coordinates.

mtllib basecama.mtl
g default
v -40.000000 0.000000 -160.000000
v 40.000000 0.000000 -160.000000
v -40.000000 100.000000 -160.000000
v 40.000000 100.000000 -160.000000
v -40.000000 100.000000 -240.000000
v 40.000000 100.000000 -240.000000
v -40.000000 0.000000 -240.000000
v 40.000000 0.000000 -240.000000
v -40.000000 175.000000 -142.399998
v 40.000000 175.000000 -142.399998
v 40.000000 175.000000 -214.399998
v -40.000000 175.000000 -214.399998
v -32.000000 225.000000 -158.399997
v 32.000000 225.000000 -158.399997
v 32.000000 225.000000 -230.400000
v -32.000000 225.000000 -230.400000
v -25.600002 275.000000 -147.599998
v 25.600002 275.000000 -147.599998
v 25.600002 275.000000 -212.399998
v -25.600002 275.000000 -212.399998
v -23.040001 335.000014 -166.879997
v 23.040001 335.000014 -166.879997
v 23.040001 335.000014 -218.719997
v -23.040001 335.000014 -218.719997
v -18.432001 385.000014 -159.263997
v 18.432001 385.000014 -159.263997
v 18.432001 385.000014 -200.735998
v -18.432001 385.000014 -200.735998
v -14.745601 435.000038 -176.211195
v 14.745601 435.000038 -176.211195
v 14.745601 435.000038 -209.388798
v -14.745601 435.000038 -209.388798
v -11.796482 485.000038 -166.728954
v 11.796482 485.000038 -166.728954
v 11.796482 485.000038 -193.271039
v -11.796482 485.000038 -193.271039
v -9.437186 535.000038 -182.183162
v 9.437186 535.000038 -182.183162
v 9.437186 535.000038 -203.416831
v -9.437186 535.000038 -203.416831
v -3.774874 565.000057 -188.553263
v 3.774874 565.000057 -188.553263
v 3.774874 565.000057 -197.046731
v -3.774874 565.000057 -197.046731
vt 0.375000 0.000000
vt 0.625000 0.000000
vt 0.375000 0.250000
vt 0.625000 0.250000
vt 0.375000 0.500000
vt 0.625000 0.500000
vt 0.375000 0.750000
vt 0.625000 0.750000
vt 0.375000 1.000000
vt 0.625000 1.000000
vt 0.875000 0.000000
vt 0.875000 0.250000
vt 0.125000 0.000000
vt 0.125000 0.250000
vt 0.375000 0.250000
vt 0.625000 0.250000
vt 0.625000 0.500000
vt 0.375000 0.500000
vt 0.375000 0.250000
vt 0.625000 0.250000
vt 0.625000 0.500000
vt 0.375000 0.500000
vt 0.375000 0.250000
vt 0.625000 0.250000
vt 0.625000 0.500000
vt 0.375000 0.500000
vt 0.375000 0.250000
vt 0.625000 0.250000
vt 0.625000 0.500000
vt 0.375000 0.500000
vt 0.375000 0.250000
vt 0.625000 0.250000
vt 0.625000 0.500000
vt 0.375000 0.500000
vt 0.375000 0.250000
vt 0.625000 0.250000
vt 0.625000 0.500000
vt 0.375000 0.500000
vt 0.375000 0.250000
vt 0.625000 0.250000
vt 0.625000 0.500000
vt 0.375000 0.500000
vt 0.375000 0.250000
vt 0.625000 0.250000
vt 0.625000 0.500000
vt 0.375000 0.500000
vt 0.375000 0.250000
vt 0.625000 0.250000
vt 0.625000 0.500000
vt 0.375000 0.500000
vn 0.000000 0.000000 1.000000
vn 0.000000 0.000000 1.000000
vn 0.000000 -0.100067 0.994981
vn 0.000000 -0.100067 0.994981
vn 0.000000 1.000000 0.000000
vn 0.000000 1.000000 0.000000
vn 0.000000 1.000000 0.000000
vn 0.000000 1.000000 0.000000
vn 0.000000 0.144745 -0.989469
vn 0.000000 0.144745 -0.989469
vn 0.000000 0.000000 -1.000000
vn 0.000000 0.000000 -1.000000
vn 0.000000 -1.000000 0.000000
vn 0.000000 -1.000000 0.000000
vn 0.000000 -1.000000 0.000000
vn 0.000000 -1.000000 0.000000
vn 1.000000 0.000000 0.000000
vn 1.000000 0.000000 0.000000
vn 1.000000 0.000000 0.000000
vn 1.000000 0.000000 0.000000
vn -1.000000 0.000000 0.000000
vn -1.000000 0.000000 0.000000
vn -1.000000 0.000000 0.000000
vn -1.000000 0.000000 0.000000
vn 0.000000 -0.228461 0.973553
vn 0.000000 -0.228461 0.973553
vn 0.998123 0.061250 0.000000
vn 0.998249 0.059148 0.000000
vn 0.000000 0.323034 -0.946387
vn 0.000000 0.323034 -0.946387
vn -0.998249 0.059148 0.000000
vn -0.998123 0.061250 0.000000
vn 0.000000 0.304776 0.952424
vn 0.000000 0.304776 0.952424
vn 0.000000 0.304776 0.952424
vn 0.000000 0.304776 0.952424
vn 0.989691 0.143220 0.000000
vn 0.989666 0.143392 0.000000
vn 0.000000 -0.304776 -0.952424
vn 0.000000 -0.304776 -0.952424
vn 0.000000 -0.304776 -0.952424
vn 0.000000 -0.304776 -0.952424
vn -0.989666 0.143392 0.000000
vn -0.989691 0.143220 0.000000
vn 0.000000 -0.211131 0.977458
vn 0.000000 -0.211131 0.977458
vn 0.000000 -0.211131 0.977458
vn 0.000000 -0.211131 0.977458
vn 0.996136 0.087830 0.000000
vn 0.996245 0.086583 0.000000
vn 0.000000 0.338719 -0.940887
vn 0.000000 0.338719 -0.940887
vn 0.000000 0.338719 -0.940887
vn 0.000000 0.338719 -0.940887
vn -0.996245 0.086583 0.000000
vn -0.996136 0.087830 0.000000
vn 0.000000 0.305927 0.952055
vn 0.000000 0.305927 0.952055
vn 0.000000 0.305927 0.952055
vn 0.000000 0.305927 0.952055
vn 0.998213 0.059762 0.000000
vn 0.998131 0.061117 0.000000
vn 0.000000 -0.104754 -0.994498
vn 0.000000 -0.104754 -0.994498
vn 0.000000 -0.104754 -0.994498
vn 0.000000 -0.104754 -0.994498
vn -0.998131 0.061117 0.000000
vn -0.998213 0.059762 0.000000
vn 0.000000 -0.150583 0.988597
vn 0.000000 -0.150583 0.988597
vn 0.000000 -0.150583 0.988597
vn 0.000000 -0.150583 0.988597
vn 0.996452 0.084167 0.000000
vn 0.996431 0.084415 0.000000
vn 0.000000 0.338453 -0.940983
vn 0.000000 0.338453 -0.940983
vn 0.000000 0.338453 -0.940983
vn 0.000000 0.338453 -0.940983
vn -0.996431 0.084415 0.000000
vn -0.996452 0.084167 0.000000
vn 0.000000 0.321006 0.947077
vn 0.000000 0.321006 0.947077
vn 0.000000 0.321006 0.947077
vn 0.000000 0.321006 0.947077
vn 0.997719 0.067502 0.000000
vn 0.997730 0.067342 0.000000
vn 0.000000 -0.170521 -0.985354
vn 0.000000 -0.170521 -0.985354
vn 0.000000 -0.170521 -0.985354
vn 0.000000 -0.170521 -0.985354
vn -0.997730 0.067342 0.000000
vn -0.997719 0.067502 0.000000
vn 0.000000 -0.186324 0.982488
vn 0.000000 -0.186324 0.982488
vn 0.000000 -0.186324 0.982488
vn 0.000000 -0.186324 0.982488
vn 0.998548 0.053868 0.000000
vn 0.998543 0.053971 0.000000
vn 0.000000 0.306809 -0.951771
vn 0.000000 0.306809 -0.951771
vn 0.000000 0.306809 -0.951771
vn 0.000000 0.306809 -0.951771
vn -0.998543 0.053971 0.000000
vn -0.998548 0.053868 0.000000
vn 0.000000 0.295300 0.955405
vn 0.000000 0.295300 0.955405
vn 0.000000 0.275182 0.961392
vn 0.000000 0.275182 0.961392
vn 0.996359 0.085254 0.000000
vn 0.997137 0.075622 0.000000
vn 0.000000 -0.198863 -0.980027
vn 0.000000 -0.198863 -0.980027
vn 0.000000 -0.104363 -0.994539
vn 0.000000 -0.104363 -0.994539
vn -0.997137 0.075622 0.000000
vn -0.996359 0.085254 0.000000
vn 0.000000 0.207706 0.978191
vn 0.000000 0.207706 0.978191
vn 0.982650 0.185469 0.000000
vn 0.982650 0.185469 0.000000
vn 0.000000 0.207706 -0.978191
vn 0.000000 0.207706 -0.978191
vn -0.982650 0.185469 0.000000
vn -0.982650 0.185469 0.000000
s 1
g pCube2
usemtl lambert3SG
f 1/1/1 2/2/2 4/4/3 3/3/4
s off
f 41/47/5 42/48/6 43/49/7 44/50/8
s 2
f 5/5/9 6/6/10 8/8/11 7/7/12
s off
f 7/7/13 8/8/14 2/10/15 1/9/16
s 3
f 2/2/17 8/11/18 6/12/19 4/4/20
s 4
f 7/13/21 1/1/22 3/3/23 5/14/24
s 1
f 3/3/4 4/4/3 10/16/25 9/15/26
s 3
f 4/4/20 6/6/19 11/17/27 10/16/28
s 2
f 6/6/10 5/5/9 12/18/29 11/17/30
s 4
f 5/5/24 3/3/23 9/15/31 12/18/32
s off
f 9/15/33 10/16/34 14/20/35 13/19/36
s 3
f 10/16/28 11/17/27 15/21/37 14/20/38
s off
f 11/17/39 12/18/40 16/22/41 15/21/42
s 4
f 12/18/32 9/15/31 13/19/43 16/22/44
s off
f 13/19/45 14/20/46 18/24/47 17/23/48
s 3
f 14/20/38 15/21/37 19/25/49 18/24/50
s off
f 15/21/51 16/22/52 20/26/53 19/25/54
s 4
f 16/22/44 13/19/43 17/23/55 20/26/56
s off
f 17/23/57 18/24/58 22/28/59 21/27/60
s 3
f 18/24/50 19/25/49 23/29/61 22/28/62
s off
f 19/25/63 20/26/64 24/30/65 23/29/66
s 4
f 20/26/56 17/23/55 21/27/67 24/30/68
s off
f 21/27/69 22/28/70 26/32/71 25/31/72
s 3
f 22/28/62 23/29/61 27/33/73 26/32/74
s off
f 23/29/75 24/30/76 28/34/77 27/33/78
s 4
f 24/30/68 21/27/67 25/31/79 28/34/80
s off
f 25/31/81 26/32/82 30/36/83 29/35/84
s 3
f 26/32/74 27/33/73 31/37/85 30/36/86
s off
f 27/33/87 28/34/88 32/38/89 31/37/90
s 4
f 28/34/80 25/31/79 29/35/91 32/38/92
s off
f 29/35/93 30/36/94 34/40/95 33/39/96
s 3
f 30/36/86 31/37/85 35/41/97 34/40/98
s off
f 31/37/99 32/38/100 36/42/101 35/41/102
s 4
f 32/38/92 29/35/91 33/39/103 36/42/104
s 5
f 33/39/105 34/40/106 38/44/107 37/43/108
s 3
f 34/40/98 35/41/97 39/45/109 38/44/110
s 6
f 35/41/111 36/42/112 40/46/113 39/45/114
s 4
f 36/42/104 33/39/103 37/43/115 40/46/116
s 5
f 37/43/108 38/44/107 42/48/117 41/47/118
s 3
f 38/44/110 39/45/109 43/49/119 42/48/120
s 6
f 39/45/114 40/46/113 44/50/121 43/49/122
s 4
f 40/46/116 37/43/115 41/47/123 44/50/124
g default
v -40.000000 0.000000 240.000000
v 40.000000 0.000000 240.000000
v -40.000000 100.000000 240.000000
v 40.000000 100.000000 240.000000
v -40.000000 100.000000 160.000000
v 40.000000 100.000000 160.000000
v -40.000000 0.000000 160.000000
v 40.000000 0.000000 160.000000
v -40.000000 175.000000 257.600002
v 40.000000 175.000000 257.600002
v 40.000000 175.000000 185.600002
v -40.000000 175.000000 185.600002
v -32.000000 225.000000 241.600003
v 32.000000 225.000000 241.600003
v 32.000000 225.000000 169.600000
v -32.000000 225.000000 169.600000
v -25.600002 275.000000 252.400002
v 25.600002 275.000000 252.400002
v 25.600002 275.000000 187.600002
v -25.600002 275.000000 187.600002
v -23.040001 335.000014 233.120003
v 23.040001 335.000014 233.120003
v 23.040001 335.000014 181.280003
v -23.040001 335.000014 181.280003
v -18.432001 385.000014 240.736003
v 18.432001 385.000014 240.736003
v 18.432001 385.000014 199.264002
v -18.432001 385.000014 199.264002
v -14.745601 435.000038 223.788805
v 14.745601 435.000038 223.788805
v 14.745601 435.000038 190.611202
v -14.745601 435.000038 190.611202
v -11.796482 485.000038 233.271046
v 11.796482 485.000038 233.271046
v 11.796482 485.000038 206.728961
v -11.796482 485.000038 206.728961
v -9.437186 535.000038 217.816838
v 9.437186 535.000038 217.816838
v 9.437186 535.000038 196.583169
v -9.437186 535.000038 196.583169
v -3.774874 565.000057 211.446737
v 3.774874 565.000057 211.446737
v 3.774874 565.000057 202.953269
v -3.774874 565.000057 202.953269
vt 0.375000 0.000000
vt 0.625000 0.000000
vt 0.375000 0.250000
vt 0.625000 0.250000
vt 0.375000 0.500000
vt 0.625000 0.500000
vt 0.375000 0.750000
vt 0.625000 0.750000
vt 0.375000 1.000000
vt 0.625000 1.000000
vt 0.875000 0.000000
vt 0.875000 0.250000
vt 0.125000 0.000000
vt 0.125000 0.250000
vt 0.375000 0.250000
vt 0.625000 0.250000
vt 0.625000 0.500000
vt 0.375000 0.500000
vt 0.375000 0.250000
vt 0.625000 0.250000
vt 0.625000 0.500000
vt 0.375000 0.500000
vt 0.375000 0.250000
vt 0.625000 0.250000
vt 0.625000 0.500000
vt 0.375000 0.500000
vt 0.375000 0.250000
vt 0.625000 0.250000
vt 0.625000 0.500000
vt 0.375000 0.500000
vt 0.375000 0.250000
vt 0.625000 0.250000
vt 0.625000 0.500000
vt 0.375000 0.500000
vt 0.375000 0.250000
vt 0.625000 0.250000
vt 0.625000 0.500000
vt 0.375000 0.500000
vt 0.375000 0.250000
vt 0.625000 0.250000
vt 0.625000 0.500000
vt 0.375000 0.500000
vt 0.375000 0.250000
vt 0.625000 0.250000
vt 0.625000 0.500000
vt 0.375000 0.500000
vt 0.375000 0.250000
vt 0.625000 0.250000
vt 0.625000 0.500000
vt 0.375000 0.500000
vn 0.000000 0.000000 1.000000
vn 0.000000 0.000000 1.000000
vn 0.000000 -0.100067 0.994981
vn 0.000000 -0.100067 0.994981
vn 0.000000 1.000000 0.000000
vn 0.000000 1.000000 0.000000
vn 0.000000 1.000000 0.000000
vn 0.000000 1.000000 0.000000
vn 0.000000 0.144745 -0.989469
vn 0.000000 0.144745 -0.989469
vn 0.000000 0.000000 -1.000000
vn 0.000000 0.000000 -1.000000
vn 0.000000 -1.000000 0.000000
vn 0.000000 -1.000000 0.000000
vn 0.000000 -1.000000 0.000000
vn 0.000000 -1.000000 0.000000
vn 1.000000 0.000000 0.000000
vn 1.000000 0.000000 0.000000
vn 1.000000 0.000000 0.000000
vn 1.000000 0.000000 0.000000
vn -1.000000 0.000000 0.000000
vn -1.000000 0.000000 0.000000
vn -1.000000 0.000000 0.000000
vn -1.000000 0.000000 0.000000
vn 0.000000 -0.228461 0.973553
vn 0.000000 -0.228461 0.973553
vn 0.998123 0.061250 0.000000
vn 0.998249 0.059148 0.000000
vn 0.000000 0.323034 -0.946387
vn 0.000000 0.323034 -0.946387
vn -0.998249 0.059148 0.000000
vn -0.998123 0.061250 0.000000
vn 0.000000 0.304776 0.952424
vn 0.000000 0.304776 0.952424
vn 0.000000 0.304776 0.952424
vn 0.000000 0.304776 0.952424
vn 0.989691 0.143220 0.000000
vn 0.989666 0.143392 0.000000
vn 0.000000 -0.304776 -0.952424
vn 0.000000 -0.304776 -0.952424
vn 0.000000 -0.304776 -0.952424
vn 0.000000 -0.304776 -0.952424
vn -0.989666 0.143392 0.000000
vn -0.989691 0.143220 0.000000
vn 0.000000 -0.211131 0.977458
vn 0.000000 -0.211131 0.977458
vn 0.000000 -0.211131 0.977458
vn 0.000000 -0.211131 0.977458
vn 0.996136 0.087830 0.000000
vn 0.996245 0.086583 0.000000
vn 0.000000 0.338719 -0.940887
vn 0.000000 0.338719 -0.940887
vn 0.000000 0.338719 -0.940887
vn 0.000000 0.338719 -0.940887
vn -0.996245 0.086583 0.000000
vn -0.996136 0.087830 0.000000
vn 0.000000 0.305927 0.952055
vn 0.000000 0.305927 0.952055
vn 0.000000 0.305927 0.952055
vn 0.000000 0.305927 0.952055
vn 0.998213 0.059762 0.000000
vn 0.998131 0.061117 0.000000
vn 0.000000 -0.104754 -0.994498
vn 0.000000 -0.104754 -0.994498
vn 0.000000 -0.104754 -0.994498
vn 0.000000 -0.104754 -0.994498
vn -0.998131 0.061117 0.000000
vn -0.998213 0.059762 0.000000
vn 0.000000 -0.150583 0.988597
vn 0.000000 -0.150583 0.988597
vn 0.000000 -0.150583 0.988597
vn 0.000000 -0.150583 0.988597
vn 0.996452 0.084167 0.000000
vn 0.996431 0.084415 0.000000
vn 0.000000 0.338453 -0.940983
vn 0.000000 0.338453 -0.940983
vn 0.000000 0.338453 -0.940983
vn 0.000000 0.338453 -0.940983
vn -0.996431 0.084415 0.000000
vn -0.996452 0.084167 0.000000
vn 0.000000 0.321006 0.947077
vn 0.000000 0.321006 0.947077
vn 0.000000 0.321006 0.947077
vn 0.000000 0.321006 0.947077
vn 0.997719 0.067502 0.000000
vn 0.997730 0.067342 0.000000
vn 0.000000 -0.170521 -0.985354
vn 0.000000 -0.170521 -0.985354
vn 0.000000 -0.170521 -0.985354
vn 0.000000 -0.170521 -0.985354
vn -0.997730 0.067342 0.000000
vn -0.997719 0.067502 0.000000
vn 0.000000 -0.186324 0.982488
vn 0.000000 -0.186324 0.982488
vn 0.000000 -0.186324 0.982488
vn 0.000000 -0.186324 0.982488
vn 0.998548 0.053868 0.000000
vn 0.998543 0.053971 0.000000
vn 0.000000 0.306809 -0.951771
vn 0.000000 0.306809 -0.951771
vn 0.000000 0.306809 -0.951771
vn 0.000000 0.306809 -0.951771
vn -0.998543 0.053971 0.000000
vn -0.998548 0.053868 0.000000
vn 0.000000 0.295300 0.955405
vn 0.000000 0.295300 0.955405
vn 0.000000 0.275182 0.961392
vn 0.000000 0.275182 0.961392
vn 0.996359 0.085254 0.000000
vn 0.997137 0.075622 0.000000
vn 0.000000 -0.198863 -0.980027
vn 0.000000 -0.198863 -0.980027
vn 0.000000 -0.104363 -0.994539
vn 0.000000 -0.104363 -0.994539
vn -0.997137 0.075622 0.000000
vn -0.996359 0.085254 0.000000
vn 0.000000 0.207706 0.978191
vn 0.000000 0.207706 0.978191
vn 0.982650 0.185469 0.000000
vn 0.982650 0.185469 0.000000
vn 0.000000 0.207706 -0.978191
vn 0.000000 0.207706 -0.978191
vn -0.982650 0.185469 0.000000
vn -0.982650 0.185469 0.000000
s 1
g pCube1
usemtl lambert3SG
f 45/51/125 46/52/126 48/54/127 47/53/128
s off
f 85/97/129 86/98/130 87/99/131 88/100/132
s 2
f 49/55/133 50/56/134 52/58/135 51/57/136
s off
f 51/57/137 52/58/138 46/60/139 45/59/140
s 3
f 46/52/141 52/61/142 50/62/143 48/54/144
s 4
f 51/63/145 45/51/146 47/53/147 49/64/148
s 1
f 47/53/128 48/54/127 54/66/149 53/65/150
s 3
f 48/54/144 50/56/143 55/67/151 54/66/152
s 2
f 50/56/134 49/55/133 56/68/153 55/67/154
s 4
f 49/55/148 47/53/147 53/65/155 56/68/156
s off
f 53/65/157 54/66/158 58/70/159 57/69/160
s 3
f 54/66/152 55/67/151 59/71/161 58/70/162
s off
f 55/67/163 56/68/164 60/72/165 59/71/166
s 4
f 56/68/156 53/65/155 57/69/167 60/72/168
s off
f 57/69/169 58/70/170 62/74/171 61/73/172
s 3
f 58/70/162 59/71/161 63/75/173 62/74/174
s off
f 59/71/175 60/72/176 64/76/177 63/75/178
s 4
f 60/72/168 57/69/167 61/73/179 64/76/180
s off
f 61/73/181 62/74/182 66/78/183 65/77/184
s 3
f 62/74/174 63/75/173 67/79/185 66/78/186
s off
f 63/75/187 64/76/188 68/80/189 67/79/190
s 4
f 64/76/180 61/73/179 65/77/191 68/80/192
s off
f 65/77/193 66/78/194 70/82/195 69/81/196
s 3
f 66/78/186 67/79/185 71/83/197 70/82/198
s off
f 67/79/199 68/80/200 72/84/201 71/83/202
s 4
f 68/80/192 65/77/191 69/81/203 72/84/204
s off
f 69/81/205 70/82/206 74/86/207 73/85/208
s 3
f 70/82/198 71/83/197 75/87/209 74/86/210
s off
f 71/83/211 72/84/212 76/88/213 75/87/214
s 4
f 72/84/204 69/81/203 73/85/215 76/88/216
s off
f 73/85/217 74/86/218 78/90/219 77/89/220
s 3
f 74/86/210 75/87/209 79/91/221 78/90/222
s off
f 75/87/223 76/88/224 80/92/225 79/91/226
s 4
f 76/88/216 73/85/215 77/89/227 80/92/228
s 5
f 77/89/229 78/90/230 82/94/231 81/93/232
s 3
f 78/90/222 79/91/221 83/95/233 82/94/234
s 6
f 79/91/235 80/92/236 84/96/237 83/95/238
s 4
f 80/92/228 77/89/227 81/93/239 84/96/240
s 5
f 81/93/232 82/94/231 86/98/241 85/97/242
s 3
f 82/94/234 83/95/233 87/99/243 86/98/244
s 6
f 83/95/238 84/96/237 88/100/245 87/99/246
s 4
f 84/96/240 81/93/239 85/97/247 88/100/248
