# This file uses meters as units for non-parametric coordinates.

mtllib cama2.mtl
g default
v 740.000000 103.000000 35.000000
v 740.000000 103.000000 -55.000000
v 740.000000 113.000000 35.000000
v 740.000000 113.000000 -55.000000
v 540.000000 113.000000 35.000000
v 540.000000 113.000000 -55.000000
v 540.000000 103.000000 35.000000
v 540.000000 103.000000 -55.000000
vt 0.452008 0.159237
vt 0.451406 0.157932
vt 0.004317 -0.005307
vt 0.202108 0.409237
vt 0.202711 0.156727
vt 0.254317 1.000688
vt 0.243698 0.162306
vt 0.452711 0.406727
vt 0.243698 0.407774
vt 0.443049 0.407774
vt 0.452108 0.159237
vt 0.452108 0.409237
vt 0.202008 0.159237
vt 0.202008 0.409237
vt 0.443049 0.162306
vt 0.202108 0.159237
vt 0.202711 0.406727
vt 0.201406 0.157932
vt 0.452711 0.156727
vt 0.004317 1.000688
vt 0.451406 0.407932
vt 0.254317 -0.005307
vt 0.201406 0.407932
vt 0.452008 0.409237
vn 1.000000 0.000000 0.000000
vn 1.000000 0.000000 0.000000
vn 1.000000 0.000000 0.000000
vn 1.000000 0.000000 0.000000
vn 0.000000 1.000000 0.000000
vn 0.000000 1.000000 0.000000
vn 0.000000 1.000000 0.000000
vn 0.000000 1.000000 0.000000
vn -1.000000 0.000000 -0.000000
vn -1.000000 0.000000 -0.000000
vn -1.000000 0.000000 -0.000000
vn -1.000000 0.000000 -0.000000
vn 0.000000 -1.000000 0.000000
vn 0.000000 -1.000000 0.000000
vn 0.000000 -1.000000 0.000000
vn 0.000000 -1.000000 0.000000
vn 0.000000 0.000000 -1.000000
vn 0.000000 0.000000 -1.000000
vn 0.000000 0.000000 -1.000000
vn 0.000000 0.000000 -1.000000
vn 0.000000 0.000000 1.000000
vn 0.000000 0.000000 1.000000
vn 0.000000 0.000000 1.000000
vn 0.000000 0.000000 1.000000
s off
g pCube11
usemtl lambert27SG
f 1/18/1 2/2/2 4/21/3 3/23/4
usemtl lambert28SG
f 3/3/5 4/22/6 6/6/7 5/20/8
usemtl lambert27SG
f 5/5/9 6/19/10 8/8/11 7/17/12
f 7/7/13 8/15/14 2/10/15 1/9/16
f 2/16/17 8/11/18 6/12/19 4/4/20
f 7/13/21 1/1/22 3/24/23 5/14/24
g default
v 440.000000 103.000000 39.500000
v 540.000000 103.000000 39.500000
v 440.000000 113.000000 39.500000
v 540.000000 113.000000 39.500000
v 440.000000 113.000000 -305.500000
v 540.000000 113.000000 -305.500000
v 440.000000 103.000000 -305.500000
v 540.000000 103.000000 -305.500000
vt 0.452008 0.159237
vt 0.451406 0.157932
vt 0.004317 -0.005307
vt 0.202108 0.409237
vt 0.202711 0.156727
vt 0.254317 1.000688
vt 0.243698 0.162306
vt 0.452711 0.406727
vt 0.243698 0.407774
vt 0.443049 0.407774
vt 0.452108 0.159237
vt 0.452108 0.409237
vt 0.202008 0.159237
vt 0.202008 0.409237
vt 0.443049 0.162306
vt 0.202108 0.159237
vt 0.202711 0.406727
vt 0.201406 0.157932
vt 0.452711 0.156727
vt 0.004317 1.000688
vt 0.451406 0.407932
vt 0.254317 -0.005307
vt 0.201406 0.407932
vt 0.452008 0.409237
vn 0.000000 0.000000 1.000000
vn 0.000000 0.000000 1.000000
vn 0.000000 0.000000 1.000000
vn 0.000000 0.000000 1.000000
vn 0.000000 1.000000 0.000000
vn 0.000000 1.000000 0.000000
vn 0.000000 1.000000 0.000000
vn 0.000000 1.000000 0.000000
vn 0.000000 0.000000 -1.000000
vn 0.000000 0.000000 -1.000000
vn 0.000000 0.000000 -1.000000
vn 0.000000 0.000000 -1.000000
vn 0.000000 -1.000000 0.000000
vn 0.000000 -1.000000 0.000000
vn 0.000000 -1.000000 0.000000
vn 0.000000 -1.000000 0.000000
vn 1.000000 0.000000 0.000000
vn 1.000000 0.000000 0.000000
vn 1.000000 0.000000 0.000000
vn 1.000000 0.000000 0.000000
vn -1.000000 0.000000 0.000000
vn -1.000000 0.000000 0.000000
vn -1.000000 0.000000 0.000000
vn -1.000000 0.000000 0.000000
s off
g pCube10
usemtl lambert30SG
f 9/42/25 10/26/26 12/45/27 11/47/28
usemtl lambert31SG
f 11/27/29 12/46/30 14/30/31 13/44/32
usemtl lambert30SG
f 13/29/33 14/43/34 16/32/35 15/41/36
f 15/31/37 16/39/38 10/34/39 9/33/40
f 10/40/41 16/35/42 14/36/43 12/28/44
f 15/37/45 9/25/46 11/48/47 13/38/48
g default
v 440.000000 55.000000 45.000000
v 770.000000 55.000000 45.000000
v 440.000000 105.000000 45.000000
v 770.000000 105.000000 45.000000
v 440.000000 105.000000 -305.000000
v 770.000000 105.000000 -305.000000
v 440.000000 55.000000 -305.000000
v 770.000000 55.000000 -305.000000
vt 1.002143 0.189228
vt 0.999719 0.189228
vt -0.006276 0.187259
vt -0.003448 1.006224
vt -0.001024 0.181025
vt 0.999719 1.004256
vt -0.001024 0.187587
vt 1.004971 0.998021
vt -0.001024 1.004583
vt 1.004971 1.004583
vt 1.002547 0.189228
vt 1.002547 1.006224
vt -0.003852 0.189228
vt -0.003852 1.006224
vt 1.004971 0.187587
vt -0.003448 0.189228
vt -0.001024 0.998021
vt -0.006276 0.189228
vt 1.004971 0.181025
vt -0.006276 1.004256
vt 0.999719 1.006224
vt 0.999719 0.187259
vt -0.006276 1.006224
vt 1.002143 1.006224
vn 0.000000 0.000000 1.000000
vn 0.000000 0.000000 1.000000
vn 0.000000 0.000000 1.000000
vn 0.000000 0.000000 1.000000
vn 0.000000 1.000000 0.000000
vn 0.000000 1.000000 0.000000
vn 0.000000 1.000000 0.000000
vn 0.000000 1.000000 0.000000
vn 0.000000 0.000000 -1.000000
vn 0.000000 0.000000 -1.000000
vn 0.000000 0.000000 -1.000000
vn 0.000000 0.000000 -1.000000
vn 0.000000 -1.000000 0.000000
vn 0.000000 -1.000000 0.000000
vn 0.000000 -1.000000 0.000000
vn 0.000000 -1.000000 0.000000
vn 1.000000 0.000000 0.000000
vn 1.000000 0.000000 0.000000
vn 1.000000 0.000000 0.000000
vn 1.000000 0.000000 0.000000
vn -1.000000 0.000000 0.000000
vn -1.000000 0.000000 0.000000
vn -1.000000 0.000000 0.000000
vn -1.000000 0.000000 0.000000
s off
g pCube8
usemtl lambert10SG
f 17/66/49 18/50/50 20/69/51 19/71/52
f 19/51/53 20/70/54 22/54/55 21/68/56
f 21/53/57 22/67/58 24/56/59 23/65/60
f 23/55/61 24/63/62 18/58/63 17/57/64
f 18/64/65 24/59/66 22/60/67 20/52/68
f 23/61/69 17/49/70 19/72/71 21/62/72
g default
v 445.000000 100.000000 45.000000
v 775.000000 100.000000 45.000000
v 445.000000 110.000000 45.000000
v 775.000000 110.000000 45.000000
v 445.000000 110.000000 -305.000000
v 775.000000 110.000000 -305.000000
v 445.000000 100.000000 -305.000000
v 775.000000 100.000000 -305.000000
vt 0.411891 0.194749
vt 0.411300 0.194749
vt -0.364781 -0.349830
vt 0.166522 0.394100
vt 0.167114 0.192747
vt 0.994122 1.055189
vt 0.167114 0.193043
vt 0.412581 0.392098
vt 0.167114 0.392394
vt 0.412581 0.392394
vt 0.411990 0.194749
vt 0.411990 0.394100
vt 0.166424 0.194749
vt 0.166424 0.394100
vt 0.412581 0.193043
vt 0.166522 0.194749
vt 0.167114 0.392098
vt 0.165832 0.194749
vt 0.412581 0.192747
vt -0.364781 1.055189
vt 0.411300 0.394100
vt 0.994122 -0.349830
vt 0.165832 0.394100
vt 0.411891 0.394100
vn 0.000000 0.000000 1.000000
vn 0.000000 0.000000 1.000000
vn 0.000000 0.000000 1.000000
vn 0.000000 0.000000 1.000000
vn 0.000000 1.000000 0.000000
vn 0.000000 1.000000 0.000000
vn 0.000000 1.000000 0.000000
vn 0.000000 1.000000 0.000000
vn 0.000000 0.000000 -1.000000
vn 0.000000 0.000000 -1.000000
vn 0.000000 0.000000 -1.000000
vn 0.000000 0.000000 -1.000000
vn 0.000000 -1.000000 0.000000
vn 0.000000 -1.000000 0.000000
vn 0.000000 -1.000000 0.000000
vn 0.000000 -1.000000 0.000000
vn 1.000000 0.000000 0.000000
vn 1.000000 0.000000 0.000000
vn 1.000000 0.000000 0.000000
vn 1.000000 0.000000 0.000000
vn -1.000000 0.000000 0.000000
vn -1.000000 0.000000 0.000000
vn -1.000000 0.000000 0.000000
vn -1.000000 0.000000 0.000000
s off
g pCube9
usemtl lambert25SG
f 25/90/73 26/74/74 28/93/75 27/95/76
f 27/75/77 28/94/78 30/78/79 29/92/80
f 29/77/81 30/91/82 32/80/83 31/89/84
f 31/79/85 32/87/86 26/82/87 25/81/88
f 26/88/89 32/83/90 30/84/91 28/76/92
f 31/85/93 25/73/94 27/96/95 29/86/96
g default
v 400.000000 0.000000 -295.000000
v 800.000000 0.000000 -295.000000
v 400.000000 300.000000 -295.000000
v 800.000000 300.000000 -295.000000
v 400.000000 300.000000 -305.000000
v 800.000000 300.000000 -305.000000
v 400.000000 0.000000 -305.000000
v 800.000000 0.000000 -305.000000
vt 0.992369 0.793574
vt 0.982114 -0.030809
vt 0.744378 0.795582
vt 0.745080 1.040964
vt 0.743072 0.792369
vt 0.994378 1.045582
vt 0.741767 0.793072
vt 0.993072 1.042370
vt 0.741767 1.043072
vt 0.991767 1.043072
vt 0.995080 0.790964
vt 0.995080 1.040964
vt 0.742369 0.793574
vt 0.742369 1.043574
vt 0.991767 0.793072
vt 0.743072 1.042370
vt 0.993072 0.792369
vt 0.744378 1.045582
vt 0.994378 0.795582
vt -0.023881 0.975187
vt 0.745080 0.790964
vt -0.023881 -0.030809
vt 0.982114 0.975187
vt 0.992369 1.043574
vn 0.000000 0.000000 1.000000
vn 0.000000 0.000000 1.000000
vn 0.000000 0.000000 1.000000
vn 0.000000 0.000000 1.000000
vn 0.000000 1.000000 0.000000
vn 0.000000 1.000000 0.000000
vn 0.000000 1.000000 0.000000
vn 0.000000 1.000000 0.000000
vn 0.000000 0.000000 -1.000000
vn 0.000000 0.000000 -1.000000
vn 0.000000 0.000000 -1.000000
vn 0.000000 0.000000 -1.000000
vn 0.000000 -1.000000 0.000000
vn 0.000000 -1.000000 0.000000
vn 0.000000 -1.000000 0.000000
vn 0.000000 -1.000000 0.000000
vn 1.000000 0.000000 0.000000
vn 1.000000 0.000000 0.000000
vn 1.000000 0.000000 0.000000
vn 1.000000 0.000000 0.000000
vn -1.000000 0.000000 0.000000
vn -1.000000 0.000000 0.000000
vn -1.000000 0.000000 0.000000
vn -1.000000 0.000000 0.000000
s off
g pCube7
usemtl lambert8SG
f 33/118/97 34/98/98 36/119/99 35/116/100
f 35/99/101 36/115/102 38/102/103 37/114/104
f 37/101/105 38/113/106 40/104/107 39/112/108
f 39/103/109 40/111/110 34/106/111 33/105/112
f 34/117/113 40/107/114 38/108/115 36/100/116
f 39/109/117 33/97/118 35/120/119 37/110/120
