# This file uses meters as units for non-parametric coordinates.

mtllib pierna.mtl
g default
v 19.021143 150.000000 14.819656
v 16.180351 150.000000 9.244287
v 11.755713 150.000000 4.819651
v 6.180343 150.000000 1.978859
v 0.000000 150.000000 0.999990
v -6.180343 150.000000 1.978861
v -11.755710 150.000000 4.819653
v -16.180346 150.000000 9.244291
v -19.021135 150.000000 14.819658
v -20.000006 150.000000 21.000000
v -19.021135 150.000000 27.180342
v -16.180344 150.000000 32.755707
v -11.755708 150.000000 37.180344
v -6.180341 150.000000 40.021133
v -0.000001 150.000000 41.000004
v 6.180339 150.000000 40.021133
v 11.755706 150.000000 37.180344
v 16.180342 150.000000 32.755707
v 19.021132 150.000000 27.180340
v 20.000000 150.000000 21.000000
v 19.021143 310.000000 14.819656
v 16.180351 310.000000 9.244287
v 11.755713 310.000000 4.819651
v 6.180343 310.000000 1.978859
v 0.000000 310.000000 0.999990
v -6.180343 310.000000 1.978861
v -11.755710 310.000000 4.819653
v -16.180346 310.000000 9.244291
v -19.021135 310.000000 14.819658
v -20.000006 310.000000 21.000000
v -19.021135 310.000000 27.180342
v -16.180344 310.000000 32.755707
v -11.755708 310.000000 37.180344
v -6.180341 310.000000 40.021133
v -0.000001 310.000000 41.000004
v 6.180339 310.000000 40.021133
v 11.755706 310.000000 37.180344
v 16.180342 310.000000 32.755707
v 19.021132 310.000000 27.180340
v 20.000000 310.000000 21.000000
v 0.000000 150.000000 21.000000
v 0.000000 310.000000 21.000000
vt 0.375000 0.312500
vt 0.387500 0.312500
vt 0.387500 0.688440
vt 0.375000 0.688440
vt 0.387500 0.312500
vt 0.400000 0.312500
vt 0.400000 0.688440
vt 0.387500 0.688440
vt 0.400000 0.312500
vt 0.412500 0.312500
vt 0.412500 0.688440
vt 0.400000 0.688440
vt 0.412500 0.312500
vt 0.425000 0.312500
vt 0.425000 0.688440
vt 0.412500 0.688440
vt 0.425000 0.312500
vt 0.437500 0.312500
vt 0.437500 0.688440
vt 0.425000 0.688440
vt 0.437500 0.312500
vt 0.450000 0.312500
vt 0.450000 0.688440
vt 0.437500 0.688440
vt 0.450000 0.312500
vt 0.462500 0.312500
vt 0.462500 0.688440
vt 0.450000 0.688440
vt 0.462500 0.312500
vt 0.475000 0.312500
vt 0.475000 0.688440
vt 0.462500 0.688440
vt 0.475000 0.312500
vt 0.487500 0.312500
vt 0.487500 0.688440
vt 0.475000 0.688440
vt 0.487500 0.312500
vt 0.500000 0.312500
vt 0.500000 0.688440
vt 0.487500 0.688440
vt 0.500000 0.312500
vt 0.512500 0.312500
vt 0.512500 0.688440
vt 0.500000 0.688440
vt 0.512500 0.312500
vt 0.525000 0.312500
vt 0.525000 0.688440
vt 0.512500 0.688440
vt 0.525000 0.312500
vt 0.537500 0.312500
vt 0.537500 0.688440
vt 0.525000 0.688440
vt 0.537500 0.312500
vt 0.550000 0.312500
vt 0.550000 0.688440
vt 0.537500 0.688440
vt 0.550000 0.312500
vt 0.562500 0.312500
vt 0.562500 0.688440
vt 0.550000 0.688440
vt 0.562500 0.312500
vt 0.575000 0.312500
vt 0.575000 0.688440
vt 0.562500 0.688440
vt 0.575000 0.312500
vt 0.587500 0.312500
vt 0.587500 0.688440
vt 0.575000 0.688440
vt 0.587500 0.312500
vt 0.600000 0.312500
vt 0.600000 0.688440
vt 0.587500 0.688440
vt 0.600000 0.312500
vt 0.612500 0.312500
vt 0.612500 0.688440
vt 0.600000 0.688440
vt 0.612500 0.312500
vt 0.625000 0.312500
vt 0.625000 0.688440
vt 0.612500 0.688440
vt 0.944165 0.509268
vt 0.966359 0.552825
vt 0.817756 0.594859
vt 0.909598 0.474700
vt 0.944165 0.509268
vt 0.817756 0.594859
vt 0.866040 0.452506
vt 0.909598 0.474700
vt 0.817756 0.594859
vt 0.817756 0.444859
vt 0.866040 0.452506
vt 0.817756 0.594859
vt 0.769472 0.452506
vt 0.817756 0.444859
vt 0.817756 0.594859
vt 0.725915 0.474700
vt 0.769472 0.452506
vt 0.817756 0.594859
vt 0.691347 0.509268
vt 0.725915 0.474700
vt 0.817756 0.594859
vt 0.669154 0.552825
vt 0.691347 0.509268
vt 0.817756 0.594859
vt 0.661506 0.601109
vt 0.669154 0.552825
vt 0.817756 0.594859
vt 0.669154 0.649393
vt 0.661506 0.601109
vt 0.817756 0.594859
vt 0.691347 0.692950
vt 0.669154 0.649393
vt 0.817756 0.594859
vt 0.725915 0.727518
vt 0.691347 0.692950
vt 0.817756 0.594859
vt 0.769472 0.749712
vt 0.725915 0.727518
vt 0.817756 0.594859
vt 0.817756 0.757359
vt 0.769472 0.749712
vt 0.817756 0.594859
vt 0.866040 0.749712
vt 0.817756 0.757359
vt 0.817756 0.594859
vt 0.909598 0.727518
vt 0.866040 0.749712
vt 0.817756 0.594859
vt 0.944165 0.692950
vt 0.909598 0.727518
vt 0.817756 0.594859
vt 0.966359 0.649393
vt 0.944165 0.692950
vt 0.817756 0.594859
vt 0.974006 0.601109
vt 0.966359 0.649393
vt 0.817756 0.594859
vt 0.966359 0.552825
vt 0.974006 0.601109
vt 0.817756 0.594859
vt 0.955307 0.811904
vt 0.933113 0.855462
vt 0.806704 0.757370
vt 0.933113 0.855462
vt 0.898546 0.890029
vt 0.806704 0.757370
vt 0.898546 0.890029
vt 0.854988 0.912223
vt 0.806704 0.757370
vt 0.854988 0.912223
vt 0.806704 0.919870
vt 0.806704 0.757370
vt 0.806704 0.919870
vt 0.758420 0.912223
vt 0.806704 0.757370
vt 0.758420 0.912223
vt 0.714863 0.890029
vt 0.806704 0.757370
vt 0.714863 0.890029
vt 0.680295 0.855462
vt 0.806704 0.757370
vt 0.680295 0.855462
vt 0.658101 0.811904
vt 0.806704 0.757370
vt 0.658101 0.811904
vt 0.650454 0.763620
vt 0.806704 0.757370
vt 0.650454 0.763620
vt 0.658101 0.715336
vt 0.806704 0.757370
vt 0.658101 0.715336
vt 0.680295 0.671779
vt 0.806704 0.757370
vt 0.680295 0.671779
vt 0.714863 0.637211
vt 0.806704 0.757370
vt 0.714863 0.637211
vt 0.758420 0.615017
vt 0.806704 0.757370
vt 0.758420 0.615017
vt 0.806704 0.607370
vt 0.806704 0.757370
vt 0.806704 0.607370
vt 0.854988 0.615017
vt 0.806704 0.757370
vt 0.854988 0.615017
vt 0.898546 0.637211
vt 0.806704 0.757370
vt 0.898546 0.637211
vt 0.933113 0.671779
vt 0.806704 0.757370
vt 0.933113 0.671779
vt 0.955307 0.715336
vt 0.806704 0.757370
vt 0.955307 0.715336
vt 0.962954 0.763620
vt 0.806704 0.757370
vt 0.962954 0.763620
vt 0.955307 0.811904
vt 0.806704 0.757370
vn 0.951057 0.000000 -0.309016
vn 0.809017 0.000000 -0.587785
vn 0.809017 0.000000 -0.587785
vn 0.951057 0.000000 -0.309016
vn 0.587785 0.000000 -0.809017
vn 0.587785 0.000000 -0.809017
vn 0.309017 0.000000 -0.951057
vn 0.309017 0.000000 -0.951057
vn -0.000000 0.000000 -1.000000
vn -0.000000 0.000000 -1.000000
vn -0.309017 0.000000 -0.951057
vn -0.309017 0.000000 -0.951057
vn -0.587785 0.000000 -0.809017
vn -0.587785 0.000000 -0.809017
vn -0.809017 0.000000 -0.587785
vn -0.809017 0.000000 -0.587785
vn -0.951057 0.000000 -0.309017
vn -0.951057 0.000000 -0.309017
vn -1.000000 0.000000 0.000000
vn -1.000000 0.000000 0.000000
vn -0.951056 0.000000 0.309017
vn -0.951056 0.000000 0.309017
vn -0.809017 0.000000 0.587785
vn -0.809017 0.000000 0.587785
vn -0.587785 0.000000 0.809017
vn -0.587785 0.000000 0.809017
vn -0.309017 0.000000 0.951057
vn -0.309017 0.000000 0.951057
vn 0.000000 0.000000 1.000000
vn 0.000000 0.000000 1.000000
vn 0.309017 0.000000 0.951057
vn 0.309017 0.000000 0.951057
vn 0.587785 0.000000 0.809017
vn 0.587785 0.000000 0.809017
vn 0.809017 0.000000 0.587785
vn 0.809017 0.000000 0.587785
vn 0.951057 0.000000 0.309017
vn 0.951057 0.000000 0.309017
vn 1.000000 0.000000 0.000001
vn 1.000000 0.000000 0.000001
vn 0.000000 -1.000000 0.000000
vn 0.000000 -1.000000 0.000000
vn 0.000000 -1.000000 0.000000
vn 0.000000 -1.000000 0.000000
vn 0.000000 -1.000000 0.000000
vn 0.000000 -1.000000 0.000000
vn 0.000000 -1.000000 0.000000
vn 0.000000 -1.000000 0.000000
vn 0.000000 -1.000000 0.000000
vn 0.000000 -1.000000 0.000000
vn 0.000000 -1.000000 0.000000
vn 0.000000 -1.000000 0.000000
vn 0.000000 -1.000000 0.000000
vn 0.000000 -1.000000 0.000000
vn 0.000000 -1.000000 0.000000
vn 0.000000 -1.000000 0.000000
vn 0.000000 -1.000000 0.000000
vn 0.000000 -1.000000 0.000000
vn 0.000000 -1.000000 0.000000
vn 0.000000 -1.000000 0.000000
vn 0.000000 -1.000000 0.000000
vn 0.000000 1.000000 0.000000
vn 0.000000 1.000000 0.000000
vn 0.000000 1.000000 -0.000000
vn 0.000000 1.000000 0.000000
vn 0.000000 1.000000 0.000000
vn 0.000000 1.000000 0.000000
vn 0.000000 1.000000 0.000000
vn 0.000000 1.000000 0.000001
vn 0.000000 1.000000 0.000001
vn 0.000000 1.000000 -0.000002
vn 0.000000 1.000000 -0.000002
vn 0.000000 1.000000 0.000000
vn 0.000000 1.000000 0.000000
vn 0.000000 1.000000 -0.000001
vn 0.000000 1.000000 -0.000001
vn 0.000000 1.000000 0.000000
vn 0.000000 1.000000 0.000000
vn 0.000000 1.000000 0.000000
vn 0.000000 1.000000 0.000000
vn 0.000000 1.000000 0.000000
vn 0.000000 1.000000 0.000000
s 1
g polySurface58 polySurface42
usemtl lambert29SG
f 1/1/1 2/2/2 22/3/3 21/4/4
f 2/5/2 3/6/5 23/7/6 22/8/3
f 3/9/5 4/10/7 24/11/8 23/12/6
f 4/13/7 5/14/9 25/15/10 24/16/8
f 5/17/9 6/18/11 26/19/12 25/20/10
f 6/21/11 7/22/13 27/23/14 26/24/12
f 7/25/13 8/26/15 28/27/16 27/28/14
f 8/29/15 9/30/17 29/31/18 28/32/16
f 9/33/17 10/34/19 30/35/20 29/36/18
f 10/37/19 11/38/21 31/39/22 30/40/20
f 11/41/21 12/42/23 32/43/24 31/44/22
f 12/45/23 13/46/25 33/47/26 32/48/24
f 13/49/25 14/50/27 34/51/28 33/52/26
f 14/53/27 15/54/29 35/55/30 34/56/28
f 15/57/29 16/58/31 36/59/32 35/60/30
f 16/61/31 17/62/33 37/63/34 36/64/32
f 17/65/33 18/66/35 38/67/36 37/68/34
f 18/69/35 19/70/37 39/71/38 38/72/36
f 19/73/37 20/74/39 40/75/40 39/76/38
f 20/77/39 1/78/1 21/79/4 40/80/40
s 2
f 2/81/41 1/82/42 41/83/43
f 3/84/44 2/85/41 41/86/43
f 4/87/45 3/88/44 41/89/43
f 5/90/46 4/91/45 41/92/43
f 6/93/47 5/94/46 41/95/43
f 7/96/48 6/97/47 41/98/43
f 8/99/49 7/100/48 41/101/43
f 9/102/50 8/103/49 41/104/43
f 10/105/51 9/106/50 41/107/43
f 11/108/52 10/109/51 41/110/43
f 12/111/53 11/112/52 41/113/43
f 13/114/54 12/115/53 41/116/43
f 14/117/55 13/118/54 41/119/43
f 15/120/56 14/121/55 41/122/43
f 16/123/57 15/124/56 41/125/43
f 17/126/58 16/127/57 41/128/43
f 18/129/59 17/130/58 41/131/43
f 19/132/60 18/133/59 41/134/43
f 20/135/61 19/136/60 41/137/43
f 1/138/42 20/139/61 41/140/43
s 3
f 21/141/62 22/142/63 42/143/64
f 22/144/63 23/145/65 42/146/64
f 23/147/65 24/148/66 42/149/64
f 24/150/66 25/151/67 42/152/64
f 25/153/67 26/154/68 42/155/64
f 26/156/68 27/157/69 42/158/64
f 27/159/69 28/160/70 42/161/64
f 28/162/70 29/163/71 42/164/64
f 29/165/71 30/166/72 42/167/64
f 30/168/72 31/169/73 42/170/64
f 31/171/73 32/172/74 42/173/64
f 32/174/74 33/175/75 42/176/64
f 33/177/75 34/178/76 42/179/64
f 34/180/76 35/181/77 42/182/64
f 35/183/77 36/184/78 42/185/64
f 36/186/78 37/187/79 42/188/64
f 37/189/79 38/190/80 42/191/64
f 38/192/80 39/193/81 42/194/64
f 39/195/81 40/196/82 42/197/64
f 40/198/82 21/199/62 42/200/64
g default
v 19.021143 10.000000 14.819656
v 16.180351 10.000000 9.244287
v 11.755713 10.000000 4.819651
v 6.180343 10.000000 1.978859
v 0.000000 10.000000 0.999990
v -6.180343 10.000000 1.978861
v -11.755710 10.000000 4.819653
v -16.180346 10.000000 9.244291
v -19.021135 10.000000 14.819658
v -20.000006 10.000000 21.000000
v -19.021135 10.000000 27.180342
v -16.180344 10.000000 32.755707
v -11.755708 10.000000 37.180344
v -6.180341 10.000000 40.021133
v -0.000001 10.000000 41.000004
v 6.180339 10.000000 40.021133
v 11.755706 10.000000 37.180344
v 16.180342 10.000000 32.755707
v 19.021132 10.000000 27.180340
v 20.000000 10.000000 21.000000
v 19.021143 150.000000 14.819656
v 16.180351 150.000000 9.244287
v 11.755713 150.000000 4.819651
v 6.180343 150.000000 1.978859
v 0.000000 150.000000 0.999990
v -6.180343 150.000000 1.978861
v -11.755710 150.000000 4.819653
v -16.180346 150.000000 9.244291
v -19.021135 150.000000 14.819658
v -20.000006 150.000000 21.000000
v -19.021135 150.000000 27.180342
v -16.180344 150.000000 32.755707
v -11.755708 150.000000 37.180344
v -6.180341 150.000000 40.021133
v -0.000001 150.000000 41.000004
v 6.180339 150.000000 40.021133
v 11.755706 150.000000 37.180344
v 16.180342 150.000000 32.755707
v 19.021132 150.000000 27.180340
v 20.000000 150.000000 21.000000
v 0.000000 10.000000 21.000000
v 0.000000 150.000000 21.000000
vt 0.375000 0.312500
vt 0.387500 0.312500
vt 0.387500 0.688440
vt 0.375000 0.688440
vt 0.387500 0.312500
vt 0.400000 0.312500
vt 0.400000 0.688440
vt 0.387500 0.688440
vt 0.400000 0.312500
vt 0.412500 0.312500
vt 0.412500 0.688440
vt 0.400000 0.688440
vt 0.412500 0.312500
vt 0.425000 0.312500
vt 0.425000 0.688440
vt 0.412500 0.688440
vt 0.425000 0.312500
vt 0.437500 0.312500
vt 0.437500 0.688440
vt 0.425000 0.688440
vt 0.437500 0.312500
vt 0.450000 0.312500
vt 0.450000 0.688440
vt 0.437500 0.688440
vt 0.450000 0.312500
vt 0.462500 0.312500
vt 0.462500 0.688440
vt 0.450000 0.688440
vt 0.462500 0.312500
vt 0.475000 0.312500
vt 0.475000 0.688440
vt 0.462500 0.688440
vt 0.475000 0.312500
vt 0.487500 0.312500
vt 0.487500 0.688440
vt 0.475000 0.688440
vt 0.487500 0.312500
vt 0.500000 0.312500
vt 0.500000 0.688440
vt 0.487500 0.688440
vt 0.500000 0.312500
vt 0.512500 0.312500
vt 0.512500 0.688440
vt 0.500000 0.688440
vt 0.512500 0.312500
vt 0.525000 0.312500
vt 0.525000 0.688440
vt 0.512500 0.688440
vt 0.525000 0.312500
vt 0.537500 0.312500
vt 0.537500 0.688440
vt 0.525000 0.688440
vt 0.537500 0.312500
vt 0.550000 0.312500
vt 0.550000 0.688440
vt 0.537500 0.688440
vt 0.550000 0.312500
vt 0.562500 0.312500
vt 0.562500 0.688440
vt 0.550000 0.688440
vt 0.562500 0.312500
vt 0.575000 0.312500
vt 0.575000 0.688440
vt 0.562500 0.688440
vt 0.575000 0.312500
vt 0.587500 0.312500
vt 0.587500 0.688440
vt 0.575000 0.688440
vt 0.587500 0.312500
vt 0.600000 0.312500
vt 0.600000 0.688440
vt 0.587500 0.688440
vt 0.600000 0.312500
vt 0.612500 0.312500
vt 0.612500 0.688440
vt 0.600000 0.688440
vt 0.612500 0.312500
vt 0.625000 0.312500
vt 0.625000 0.688440
vt 0.612500 0.688440
vt 0.944165 0.509268
vt 0.966359 0.552825
vt 0.817756 0.594859
vt 0.909598 0.474700
vt 0.944165 0.509268
vt 0.817756 0.594859
vt 0.866040 0.452506
vt 0.909598 0.474700
vt 0.817756 0.594859
vt 0.817756 0.444859
vt 0.866040 0.452506
vt 0.817756 0.594859
vt 0.769472 0.452506
vt 0.817756 0.444859
vt 0.817756 0.594859
vt 0.725915 0.474700
vt 0.769472 0.452506
vt 0.817756 0.594859
vt 0.691347 0.509268
vt 0.725915 0.474700
vt 0.817756 0.594859
vt 0.669154 0.552825
vt 0.691347 0.509268
vt 0.817756 0.594859
vt 0.661506 0.601109
vt 0.669154 0.552825
vt 0.817756 0.594859
vt 0.669154 0.649393
vt 0.661506 0.601109
vt 0.817756 0.594859
vt 0.691347 0.692950
vt 0.669154 0.649393
vt 0.817756 0.594859
vt 0.725915 0.727518
vt 0.691347 0.692950
vt 0.817756 0.594859
vt 0.769472 0.749712
vt 0.725915 0.727518
vt 0.817756 0.594859
vt 0.817756 0.757359
vt 0.769472 0.749712
vt 0.817756 0.594859
vt 0.866040 0.749712
vt 0.817756 0.757359
vt 0.817756 0.594859
vt 0.909598 0.727518
vt 0.866040 0.749712
vt 0.817756 0.594859
vt 0.944165 0.692950
vt 0.909598 0.727518
vt 0.817756 0.594859
vt 0.966359 0.649393
vt 0.944165 0.692950
vt 0.817756 0.594859
vt 0.974006 0.601109
vt 0.966359 0.649393
vt 0.817756 0.594859
vt 0.966359 0.552825
vt 0.974006 0.601109
vt 0.817756 0.594859
vt 0.955307 0.811904
vt 0.933113 0.855462
vt 0.806704 0.757370
vt 0.933113 0.855462
vt 0.898546 0.890029
vt 0.806704 0.757370
vt 0.898546 0.890029
vt 0.854988 0.912223
vt 0.806704 0.757370
vt 0.854988 0.912223
vt 0.806704 0.919870
vt 0.806704 0.757370
vt 0.806704 0.919870
vt 0.758420 0.912223
vt 0.806704 0.757370
vt 0.758420 0.912223
vt 0.714863 0.890029
vt 0.806704 0.757370
vt 0.714863 0.890029
vt 0.680295 0.855462
vt 0.806704 0.757370
vt 0.680295 0.855462
vt 0.658101 0.811904
vt 0.806704 0.757370
vt 0.658101 0.811904
vt 0.650454 0.763620
vt 0.806704 0.757370
vt 0.650454 0.763620
vt 0.658101 0.715336
vt 0.806704 0.757370
vt 0.658101 0.715336
vt 0.680295 0.671779
vt 0.806704 0.757370
vt 0.680295 0.671779
vt 0.714863 0.637211
vt 0.806704 0.757370
vt 0.714863 0.637211
vt 0.758420 0.615017
vt 0.806704 0.757370
vt 0.758420 0.615017
vt 0.806704 0.607370
vt 0.806704 0.757370
vt 0.806704 0.607370
vt 0.854988 0.615017
vt 0.806704 0.757370
vt 0.854988 0.615017
vt 0.898546 0.637211
vt 0.806704 0.757370
vt 0.898546 0.637211
vt 0.933113 0.671779
vt 0.806704 0.757370
vt 0.933113 0.671779
vt 0.955307 0.715336
vt 0.806704 0.757370
vt 0.955307 0.715336
vt 0.962954 0.763620
vt 0.806704 0.757370
vt 0.962954 0.763620
vt 0.955307 0.811904
vt 0.806704 0.757370
vn 0.951057 0.000000 -0.309016
vn 0.809017 0.000000 -0.587785
vn 0.809017 0.000000 -0.587785
vn 0.951057 0.000000 -0.309016
vn 0.587785 0.000000 -0.809017
vn 0.587785 0.000000 -0.809017
vn 0.309017 0.000000 -0.951057
vn 0.309017 0.000000 -0.951057
vn -0.000000 0.000000 -1.000000
vn -0.000000 0.000000 -1.000000
vn -0.309017 0.000000 -0.951057
vn -0.309017 0.000000 -0.951057
vn -0.587785 0.000000 -0.809017
vn -0.587785 0.000000 -0.809017
vn -0.809017 0.000000 -0.587785
vn -0.809017 0.000000 -0.587785
vn -0.951057 0.000000 -0.309017
vn -0.951057 0.000000 -0.309017
vn -1.000000 0.000000 0.000000
vn -1.000000 0.000000 0.000000
vn -0.951056 0.000000 0.309017
vn -0.951056 0.000000 0.309017
vn -0.809017 0.000000 0.587785
vn -0.809017 0.000000 0.587785
vn -0.587785 0.000000 0.809017
vn -0.587785 0.000000 0.809017
vn -0.309017 0.000000 0.951057
vn -0.309017 0.000000 0.951057
vn 0.000000 0.000000 1.000000
vn 0.000000 0.000000 1.000000
vn 0.309017 0.000000 0.951057
vn 0.309017 0.000000 0.951057
vn 0.587785 0.000000 0.809017
vn 0.587785 0.000000 0.809017
vn 0.809017 0.000000 0.587785
vn 0.809017 0.000000 0.587785
vn 0.951057 0.000000 0.309017
vn 0.951057 0.000000 0.309017
vn 1.000000 0.000000 0.000001
vn 1.000000 0.000000 0.000001
vn 0.000000 -1.000000 0.000002
vn 0.000000 -1.000000 0.000002
vn 0.000000 -1.000000 0.000000
vn 0.000000 -1.000000 -0.000000
vn 0.000000 -1.000000 -0.000000
vn 0.000000 -1.000000 0.000000
vn 0.000000 -1.000000 0.000000
vn 0.000000 -1.000000 0.000000
vn 0.000000 -1.000000 0.000000
vn 0.000000 -1.000000 0.000000
vn 0.000000 -1.000000 0.000000
vn 0.000000 -1.000000 0.000000
vn 0.000000 -1.000000 0.000000
vn 0.000000 -1.000000 -0.000000
vn 0.000000 -1.000000 -0.000000
vn 0.000000 -1.000000 0.000000
vn 0.000000 -1.000000 0.000000
vn 0.000000 -1.000000 0.000000
vn 0.000000 -1.000000 0.000000
vn 0.000000 -1.000000 0.000000
vn 0.000000 -1.000000 0.000000
vn 0.000000 1.000000 0.000000
vn 0.000000 1.000000 0.000000
vn 0.000000 1.000000 0.000000
vn 0.000000 1.000000 0.000000
vn 0.000000 1.000000 0.000000
vn 0.000000 1.000000 0.000000
vn 0.000000 1.000000 0.000000
vn 0.000000 1.000000 0.000000
vn 0.000000 1.000000 0.000000
vn 0.000000 1.000000 0.000000
vn 0.000000 1.000000 0.000000
vn 0.000000 1.000000 0.000000
vn 0.000000 1.000000 0.000000
vn 0.000000 1.000000 0.000000
vn 0.000000 1.000000 0.000000
vn 0.000000 1.000000 0.000000
vn 0.000000 1.000000 0.000000
vn 0.000000 1.000000 0.000000
vn 0.000000 1.000000 0.000000
vn 0.000000 1.000000 0.000000
vn 0.000000 1.000000 0.000000
s 1
g polySurface42 polySurface56
usemtl lambert29SG
f 43/201/83 44/202/84 64/203/85 63/204/86
f 44/205/84 45/206/87 65/207/88 64/208/85
f 45/209/87 46/210/89 66/211/90 65/212/88
f 46/213/89 47/214/91 67/215/92 66/216/90
f 47/217/91 48/218/93 68/219/94 67/220/92
f 48/221/93 49/222/95 69/223/96 68/224/94
f 49/225/95 50/226/97 70/227/98 69/228/96
f 50/229/97 51/230/99 71/231/100 70/232/98
f 51/233/99 52/234/101 72/235/102 71/236/100
f 52/237/101 53/238/103 73/239/104 72/240/102
f 53/241/103 54/242/105 74/243/106 73/244/104
f 54/245/105 55/246/107 75/247/108 74/248/106
f 55/249/107 56/250/109 76/251/110 75/252/108
f 56/253/109 57/254/111 77/255/112 76/256/110
f 57/257/111 58/258/113 78/259/114 77/260/112
f 58/261/113 59/262/115 79/263/116 78/264/114
f 59/265/115 60/266/117 80/267/118 79/268/116
f 60/269/117 61/270/119 81/271/120 80/272/118
f 61/273/119 62/274/121 82/275/122 81/276/120
f 62/277/121 43/278/83 63/279/86 82/280/122
s 2
f 44/281/123 43/282/124 83/283/125
f 45/284/126 44/285/123 83/286/125
f 46/287/127 45/288/126 83/289/125
f 47/290/128 46/291/127 83/292/125
f 48/293/129 47/294/128 83/295/125
f 49/296/130 48/297/129 83/298/125
f 50/299/131 49/300/130 83/301/125
f 51/302/132 50/303/131 83/304/125
f 52/305/133 51/306/132 83/307/125
f 53/308/134 52/309/133 83/310/125
f 54/311/135 53/312/134 83/313/125
f 55/314/136 54/315/135 83/316/125
f 56/317/137 55/318/136 83/319/125
f 57/320/138 56/321/137 83/322/125
f 58/323/139 57/324/138 83/325/125
f 59/326/140 58/327/139 83/328/125
f 60/329/141 59/330/140 83/331/125
f 61/332/142 60/333/141 83/334/125
f 62/335/143 61/336/142 83/337/125
f 43/338/124 62/339/143 83/340/125
s 3
f 63/341/144 64/342/145 84/343/146
f 64/344/145 65/345/147 84/346/146
f 65/347/147 66/348/148 84/349/146
f 66/350/148 67/351/149 84/352/146
f 67/353/149 68/354/150 84/355/146
f 68/356/150 69/357/151 84/358/146
f 69/359/151 70/360/152 84/361/146
f 70/362/152 71/363/153 84/364/146
f 71/365/153 72/366/154 84/367/146
f 72/368/154 73/369/155 84/370/146
f 73/371/155 74/372/156 84/373/146
f 74/374/156 75/375/157 84/376/146
f 75/377/157 76/378/158 84/379/146
f 76/380/158 77/381/159 84/382/146
f 77/383/159 78/384/160 84/385/146
f 78/386/160 79/387/161 84/388/146
f 79/389/161 80/390/162 84/391/146
f 80/392/162 81/393/163 84/394/146
f 81/395/163 82/396/164 84/397/146
f 82/398/164 63/399/144 84/400/146
g default
v -25.000000 -30.817471 40.923444
v 25.000000 -30.817471 40.923444
v -25.000000 19.182529 40.923444
v 25.000000 19.182529 40.923444
v -25.000000 19.182529 -9.076556
v 25.000000 19.182529 -9.076556
v -25.000000 -30.817471 -9.076556
v 25.000000 -30.817471 -9.076556
v 55.000000 -30.317471 -9.076556
v 55.000000 -30.317471 40.923444
v 55.000000 4.682529 -9.076556
v 55.000000 4.682529 40.923444
vt 0.877436 0.407420
vt 0.626440 0.405980
vt 0.628378 0.408361
vt 0.626440 0.655980
vt 0.626938 0.409302
vt 0.878378 0.658361
vt 0.626938 0.407364
vt 0.876938 0.659302
vt 0.626938 0.657364
vt 0.876938 0.657364
vt 0.876440 0.405980
vt 0.876440 0.655980
vt 0.627436 0.407420
vt 0.627436 0.657420
vt 0.630759 0.407420
vt 0.876440 0.405980
vt 0.876440 0.655980
vt 0.626440 0.655980
vt 0.626440 0.405980
vt 0.626440 0.405980
vt 0.626440 0.655980
vt 0.630759 0.657420
vt 0.876440 0.655980
vt 0.880759 0.657420
vt 0.876938 0.660299
vt 0.878378 0.408361
vt 0.626440 0.655980
vt 0.880759 0.407420
vt 0.876938 0.409302
vt 0.876440 0.655980
vt 0.876938 0.410299
vt 0.626440 0.405980
vt 0.876938 0.407364
vt 0.626938 0.659302
vt 0.626938 0.410299
vt 0.628378 0.658361
vt 0.626938 0.660299
vt 0.877436 0.657420
vn 0.000000 0.000000 1.000000
vn 0.000000 0.000000 1.000000
vn 0.000000 0.000000 1.000000
vn 0.000000 0.000000 1.000000
vn 0.000000 1.000000 0.000000
vn 0.178344 0.983968 0.000000
vn 0.178344 0.983968 0.000000
vn 0.000000 1.000000 0.000000
vn 0.000000 0.000000 -1.000000
vn 0.000000 0.000000 -1.000000
vn 0.000000 0.000000 -1.000000
vn 0.000000 0.000000 -1.000000
vn 0.000000 -1.000000 0.000000
vn 0.006250 -0.999981 0.000000
vn 0.006250 -0.999981 0.000000
vn 0.000000 -1.000000 0.000000
vn 1.000000 0.000000 0.000000
vn 1.000000 0.000000 0.000000
vn 1.000000 0.000000 0.000000
vn 1.000000 0.000000 0.000000
vn -1.000000 0.000000 0.000000
vn -1.000000 0.000000 0.000000
vn -1.000000 0.000000 0.000000
vn -1.000000 0.000000 0.000000
vn 0.016664 -0.999861 0.000000
vn 0.016664 -0.999861 0.000000
vn 0.000000 0.000000 -1.000000
vn 0.000000 0.000000 -1.000000
vn 0.435169 0.900349 0.000000
vn 0.435169 0.900349 0.000000
vn 0.000000 0.000000 1.000000
vn 0.000000 0.000000 1.000000
s 1
g pCube1
usemtl lambert40SG
f 85/435/165 86/431/166 88/425/167 87/437/168
s 2
f 87/403/169 88/426/170 90/406/171 89/436/172
s 3
f 89/405/173 90/429/174 92/408/175 91/434/176
s 4
f 91/407/177 92/433/178 86/410/179 85/409/180
s off
f 94/415/181 93/428/182 95/424/183 96/422/184
f 91/413/185 85/401/186 87/438/187 89/414/188
s 4
f 86/402/179 92/411/178 93/416/189 94/419/190
s 3
f 92/411/175 90/430/174 95/423/191 93/416/192
s 2
f 90/412/171 88/427/170 96/421/193 95/417/194
s 1
f 88/404/167 86/432/166 94/420/195 96/418/196
