# This file uses meters as units for non-parametric coordinates.

mtllib puerta.mtl
g default
v 300.000000 0.000000 805.000000
v 500.000000 0.000000 805.000000
v 300.000000 500.000000 805.000000
v 500.000000 500.000000 805.000000
v 300.000000 500.000000 795.000000
v 500.000000 500.000000 795.000000
v 300.000000 0.000000 795.000000
v 500.000000 0.000000 795.000000
vt 0.663454 0.147490
vt 0.718116 0.127404
vt 0.411546 0.144277
vt 0.410944 0.394880
vt 0.724070 0.944391
vt 0.661546 0.394277
vt 0.411546 0.145683
vt 0.278541 0.130937
vt 0.411546 0.395683
vt 0.661546 0.395683
vt 0.660944 0.144880
vt 0.660944 0.394880
vt 0.413454 0.147490
vt 0.413454 0.397490
vt 0.661546 0.145683
vt 0.410944 0.144880
vt 0.717525 0.127421
vt 0.279126 0.130289
vt 0.285085 0.947907
vt 0.411546 0.394277
vt 0.723484 0.944383
vt 0.661546 0.144277
vt 0.284495 0.947268
vt 0.663454 0.397490
vn 0.000000 0.000000 1.000000
vn 0.000000 0.000000 1.000000
vn 0.000000 0.000000 1.000000
vn 0.000000 0.000000 1.000000
vn 0.000000 1.000000 0.000000
vn 0.000000 1.000000 0.000000
vn 0.000000 1.000000 0.000000
vn 0.000000 1.000000 0.000000
vn 0.000000 0.000000 -1.000000
vn 0.000000 0.000000 -1.000000
vn 0.000000 0.000000 -1.000000
vn 0.000000 0.000000 -1.000000
vn 0.000000 -1.000000 0.000000
vn 0.000000 -1.000000 0.000000
vn 0.000000 -1.000000 0.000000
vn 0.000000 -1.000000 0.000000
vn 1.000000 0.000000 0.000000
vn 1.000000 0.000000 0.000000
vn 1.000000 0.000000 0.000000
vn 1.000000 0.000000 0.000000
vn -1.000000 0.000000 0.000000
vn -1.000000 0.000000 0.000000
vn -1.000000 0.000000 0.000000
vn -1.000000 0.000000 0.000000
s off
g pCube122
usemtl lambert108SG
f 1/18/1 2/2/2 4/21/3 3/23/4
f 3/3/5 4/22/6 6/6/7 5/20/8
f 5/5/9 6/19/10 8/8/11 7/17/12
f 7/7/13 8/15/14 2/10/15 1/9/16
f 2/16/17 8/11/18 6/12/19 4/4/20
f 7/13/21 1/1/22 3/24/23 5/14/24
